<svg class="diagram-root" style="background: #f5f6f6" xmlns="http://www.w3.org/2000/svg" xmlns:xlink="http://www.w3.org/1999/xlink"><style>.diagram-root { font-family: "Helvetica Neue", sans-serif; font-size: 12px; } .t { overflow: visible; } .t-bg { y: 40; fill: #fff;   } .th { fill: #005aa0;   } .tht { fill: #fff; font-size: 14px;  } .tf { fill: #323c46; overflow: visible; } .tf.pk { fill: #005aa0; font-weight: bold; } .tf.fk { font-weight: bold; } .ty { fill: #adb1b5; font-weight: normal; text-anchor: end; } .r { fill: transparent; stroke: #c3c3c3; stroke-width: 1; } .l { stroke: 1; } .i { fill: #c2c7ce; stroke: #c2c7ce; } .i.ix { fill: #afb3b6; stroke: #000; } .fa { fill: transparent; overflow: visible; } .fa .bg.hover { fill: #f7f7f7; } .c { cy: 12; r: 4; stroke: #d2d2dc; fill: #d2d2dc; } .hr { fill: transparent; stroke: #323c46; stroke-opacity: 0.035; stroke-width: 13; } .dc { stroke: #fa5a3c; fill: #fa5a3c; } .x { stroke: white; stroke-width: 1; } .hl .th { fill: #1b9bff; } .hl .tht {  } .fhl .bg { fill: #e7f4ff; } .fhls .bg {  } .r.hl { stroke: #1b9bff; } .dim { opacity: 0.25; }</style><g class="drawing-wrapper" transform="translate(231.09090909090907, -63) scale(1,1)"><g class="rs"><path d="M 144.36 230 m -1, 0 a 1,1 0 1,0 2,0 a 1,1 0 1,0 -2,0 M 144.36 230 m -0.5, 0 a 0.5,0.5 0 1,0 1,0 a 0.5,0.5 0 1,0 -1,0  M144.36 230 L144.36 230 132.36 230 M138.36 236 L138.36 236 138.36 224 M132.36 230 Q 107.97 230, 83.57 223 T 34.78 216 M 22.78 216 m -1, 0 a 1,1 0 1,0 2,0 a 1,1 0 1,0 -2,0 M 22.78 216 m -0.5, 0 a 0.5,0.5 0 1,0 1,0 a 0.5,0.5 0 1,0 -1,0  M22.78 216 L22.78 216 34.78 216 M28.78 222 L28.78 222 28.78 210" id="h2339309621" class="r"></path><path d="M 294.52 454 m -1, 0 a 1,1 0 1,0 2,0 a 1,1 0 1,0 -2,0 M 294.52 454 m -0.5, 0 a 0.5,0.5 0 1,0 1,0 a 0.5,0.5 0 1,0 -1,0  M294.52 454 L294.52 454 306.52 454 M300.52 460 L300.52 460 300.52 448 M306.52 454 Q 340.53 454, 374.54 439.46 T 442.55 424.91 M 454.55 424.91 m -1, 0 a 1,1 0 1,0 2,0 a 1,1 0 1,0 -2,0 M 454.55 424.91 m -0.5, 0 a 0.5,0.5 0 1,0 1,0 a 0.5,0.5 0 1,0 -1,0  M454.55 424.91 L454.55 424.91 442.55 424.91 M448.55 430.91 L448.55 430.91 448.55 418.91" id="h2191462706" class="r"></path><path d="M 482 225 m -1, 0 a 1,1 0 1,0 2,0 a 1,1 0 1,0 -2,0 M 482 225 m -0.5, 0 a 0.5,0.5 0 1,0 1,0 a 0.5,0.5 0 1,0 -1,0  M482 225 L482 225 470 225 M476 231 L476 231 476 219 M470 225 Q 454.56 225, 439.11 215 T 408.21 205 M 396.21 205 m -1, 0 a 1,1 0 1,0 2,0 a 1,1 0 1,0 -2,0 M 396.21 205 m -0.5, 0 a 0.5,0.5 0 1,0 1,0 a 0.5,0.5 0 1,0 -1,0  M396.21 205 L396.21 205 408.21 205 M402.21 211 L402.21 211 402.21 199" id="h1677511289" class="r"></path><path d="M 482 250 m -1, 0 a 1,1 0 1,0 2,0 a 1,1 0 1,0 -2,0 M 482 250 m -0.5, 0 a 0.5,0.5 0 1,0 1,0 a 0.5,0.5 0 1,0 -1,0  M482 250 L482 250 470 250 M476 256 L476 256 476 244 M470 250 Q 429.13 250, 388.26 327 T 306.52 404 M 294.52 404 m -1, 0 a 1,1 0 1,0 2,0 a 1,1 0 1,0 -2,0 M 294.52 404 m -0.5, 0 a 0.5,0.5 0 1,0 1,0 a 0.5,0.5 0 1,0 -1,0  M294.52 404 L294.52 404 306.52 404 M300.52 410 L300.52 410 300.52 398" id="h541184609" class="r"></path></g><g class="hrs"></g><g class="ts"><svg width="231.87" height="100" x="-209.09" y="159" id="h99212310" class="t"><rect height="40" width="231.87" class="th"></rect><text x="13" y="25" class="tht">card_holder</text><rect height="60" width="231.87" class="t-bg" y="40"></rect><text x="13" y="61" class="tf pk">card_holder_id<tspan x="218.87" class="ty">INT</tspan></text><path d="M7,14A2,2 0 0,1 5,12A2,2 0 0,1 7,10A2,2 0 0,1 9,12A2,2 0 0,1 7,14M12.65,10C11.83,7.67 9.61,6 7, 6A6, 6 0 0, 0 1, 12A6, 6 0 0, 0 7, 18C9.61, 18 11.83, 16.33 12.65, 14H17V18H21V14H23V10H12.65Z" class="i pk" transform="translate(179.539921875, 48) scale(0.65)"></path><text x="13" y="86" class="tf">card_holder_name<tspan x="218.87" class="ty">VARCHAR(255)</tspan></text></svg><svg width="251.85" height="100" x="144.36" y="148" id="h198306241" class="t"><rect height="40" width="251.85" class="th"></rect><text x="13" y="25" class="tht">credit_card</text><rect height="60" width="251.85" class="t-bg" y="40"></rect><text x="13" y="61" class="tf pk">credit_card_number<tspan x="238.85" class="ty">VARCHAR(20)</tspan></text><path d="M7,14A2,2 0 0,1 5,12A2,2 0 0,1 7,10A2,2 0 0,1 9,12A2,2 0 0,1 7,14M12.65,10C11.83,7.67 9.61,6 7, 6A6, 6 0 0, 0 1, 12A6, 6 0 0, 0 7, 18C9.61, 18 11.83, 16.33 12.65, 14H17V18H21V14H23V10H12.65Z" class="i pk" transform="translate(139.719140625, 48) scale(0.65)"></path><text x="13" y="86" class="tf fk">credit_card_holder_id<tspan x="238.85" class="ty">INT</tspan></text></svg><svg width="271.22" height="100" x="454.55" y="367.91" id="h1670232039" class="t"><rect height="40" width="271.22" class="th"></rect><text x="13" y="25" class="tht">merchant_category</text><rect height="60" width="271.22" class="t-bg" y="40"></rect><text x="13" y="61" class="tf pk">merchant_category_id<tspan x="258.22" class="ty">INT</tspan></text><path d="M7,14A2,2 0 0,1 5,12A2,2 0 0,1 7,10A2,2 0 0,1 9,12A2,2 0 0,1 7,14M12.65,10C11.83,7.67 9.61,6 7, 6A6, 6 0 0, 0 1, 12A6, 6 0 0, 0 7, 18C9.61, 18 11.83, 16.33 12.65, 14H17V18H21V14H23V10H12.65Z" class="i pk" transform="translate(218.88992187500003, 48) scale(0.65)"></path><text x="13" y="86" class="tf">merchant_category_name<tspan x="258.22" class="ty">VARCHAR(255)</tspan></text></svg><svg width="224.52" height="125" x="70" y="347" id="h2608040635" class="t"><rect height="40" width="224.52" class="th"></rect><text x="13" y="25" class="tht">merchants</text><rect height="85" width="224.52" class="t-bg" y="40"></rect><text x="13" y="61" class="tf pk">merchants_id<tspan x="211.52" class="ty">INT</tspan></text><path d="M7,14A2,2 0 0,1 5,12A2,2 0 0,1 7,10A2,2 0 0,1 9,12A2,2 0 0,1 7,14M12.65,10C11.83,7.67 9.61,6 7, 6A6, 6 0 0, 0 1, 12A6, 6 0 0, 0 7, 18C9.61, 18 11.83, 16.33 12.65, 14H17V18H21V14H23V10H12.65Z" class="i pk" transform="translate(172.189921875, 48) scale(0.65)"></path><text x="13" y="86" class="tf">merchants_name<tspan x="211.52" class="ty">VARCHAR(255)</tspan></text><text x="13" y="111" class="tf fk">merchant_category_id<tspan x="211.52" class="ty">INT</tspan></text></svg><svg width="259.19" height="175" x="482" y="93" id="h2303088149" class="t"><rect height="40" width="259.19" class="th"></rect><text x="13" y="25" class="tht">transactions</text><rect height="135" width="259.19" class="t-bg" y="40"></rect><text x="13" y="61" class="tf pk">transaction_id<tspan x="246.19" class="ty">BIGINT</tspan></text><path d="M7,14A2,2 0 0,1 5,12A2,2 0 0,1 7,10A2,2 0 0,1 9,12A2,2 0 0,1 7,14M12.65,10C11.83,7.67 9.61,6 7, 6A6, 6 0 0, 0 1, 12A6, 6 0 0, 0 7, 18C9.61, 18 11.83, 16.33 12.65, 14H17V18H21V14H23V10H12.65Z" class="i pk" transform="translate(186.188046875, 48) scale(0.65)"></path><text x="13" y="86" class="tf">transaction_datetimestamp<tspan x="246.19" class="ty">TIMESTAMP</tspan></text><text x="13" y="111" class="tf">transaction_amount<tspan x="246.19" class="ty">FLOAT</tspan></text><text x="13" y="136" class="tf fk">credit_card_number<tspan x="246.19" class="ty">VARCHAR(20)</tspan></text><text x="13" y="161" class="tf fk">merchant_id<tspan x="246.19" class="ty">INT</tspan></text></svg></g></g><text class="qdbd-link" x="10" y="20">www.quickdatabasediagrams.com</text></svg>